<?xml version="1.0" encoding="UTF-8" standalone="no"?><!DOCTYPE svg PUBLIC "-//W3C//DTD SVG 1.1//EN" "http://www.w3.org/Graphics/SVG/1.1/DTD/svg11.dtd"><svg width="100%" height="100%" viewBox="0 0 48 49" version="1.1" xmlns="http://www.w3.org/2000/svg" xmlns:xlink="http://www.w3.org/1999/xlink" xml:space="preserve" xmlns:serif="http://www.serif.com/" style="fill-rule:evenodd;clip-rule:evenodd;stroke-linejoin:round;stroke-miterlimit:2;"><path d="M38.5,0.009c-0.781,-0.078 -2.25,0.313 -4.5,2.688c0,0 -10.766,9.984 -12.563,13.187c-2.398,4.398 -5.21,9 -6.812,12c-3.266,6.023 -3.594,10.078 -0.812,12.25c-0.016,0.031 -0.024,0.086 0,0.125c0.601,0.602 0.398,0.828 0,2.625c-0.399,1.602 0.187,3.563 1.187,4.563c0.203,0.203 1.203,1.039 2,0.437c0.602,-0.602 0.414,-0.812 -0.187,-1.812c-0.204,-0.399 -0.391,-1.579 -0.188,-2.375c0,-0.399 0.414,-1.602 1.813,-2c0.093,-0.063 0.125,-0.18 0.187,-0.25c2.063,-0.36 3.844,-1.93 5.188,-4.75c1.601,-4.204 0.585,-7.649 -2.813,-9.25c-0.398,-0.204 -1.172,-0.75 -0.375,-1.75c2.797,-4 5.016,-3 8.813,-9l9.75,-16.438c0,0 -0.219,-0.203 -0.688,-0.25Zm9.125,13.063l-15,2.812c-1.398,2.797 -3.789,5.578 -5.187,6.375c-0.602,0.398 -1.227,0.836 -1.625,1.438c7,-1.399 19.625,-7.813 19.625,-7.813c2.203,-1 2.187,-2.812 2.187,-2.812Zm-40.187,0.625c-4.602,0 -7.438,2.148 -7.438,5.75c0,4.796 4.016,6.609 11.813,5.812c0.203,0 1.226,-0.187 1.625,-0.187c0.203,-0.399 2.359,-4.024 2.562,-4.625c-0.797,0.203 -1.187,-0.602 -1.187,-1c0,-3.602 -2.774,-5.75 -7.375,-5.75Zm0,2.562c4.398,0.203 4.375,2.391 4.375,3.188c0,0.601 0.023,2.812 -4.375,2.812c-4.399,0 -4.438,-2.203 -4.438,-3c0,-0.797 0.039,-3 4.438,-3Zm12.562,4.688c0.188,-0.016 0.422,0.023 0.625,0.125c0.797,0.203 1.203,1.015 1,1.812c-0.203,0.797 -1.016,1.203 -1.812,1c-0.797,-0.203 -1.204,-1.016 -1,-1.812c0.148,-0.602 0.617,-1.086 1.187,-1.125Zm-1.375,9c0.531,-0.008 0.961,0.164 1.188,0.312c0.796,0.203 2.796,1.188 1,5.188c-1.797,4 -3.774,3.21 -4.375,2.812c-0.602,-0.203 -2.602,-0.984 -1,-5.187c1.125,-2.5 2.296,-3.102 3.187,-3.125Z" style="fill:#daa520;fill-rule:nonzero;"/></svg>