<?xml version="1.0" encoding="UTF-8" standalone="yes"?>
<svg xmlns="http://www.w3.org/2000/svg" viewBox="0 0 24 24" width="48" height="48" fill="#000000">
  <path d="M 19.34375 -0.03125 C 18.953125 -0.0703125 18.21875 0.125 17.09375 1.3125 C 17.09375 1.3125 11.710938 6.304688 10.8125 7.90625 C 9.613281 10.105469 8.207031 12.40625 7.40625 13.90625 C 5.773438 16.917969 5.609375 18.945313 7 20.03125 C 6.992188 20.046875 6.988281 20.074219 7 20.09375 C 7.300781 20.394531 7.199219 20.507813 7 21.40625 C 6.800781 22.207031 7.09375 23.1875 7.59375 23.6875 C 7.695313 23.789063 8.195313 24.207031 8.59375 23.90625 C 8.894531 23.605469 8.800781 23.5 8.5 23 C 8.398438 22.800781 8.304688 22.210938 8.40625 21.8125 C 8.40625 21.613281 8.613281 21.011719 9.3125 20.8125 C 9.359375 20.78125 9.375 20.722656 9.40625 20.6875 C 10.4375 20.507813 11.328125 19.722656 12 18.3125 C 12.800781 16.210938 12.292969 14.488281 10.59375 13.6875 C 10.394531 13.585938 10.007813 13.3125 10.40625 12.8125 C 11.804688 10.8125 12.914063 11.3125 14.8125 8.3125 L 19.6875 0.09375 C 19.6875 0.09375 19.578125 -0.0078125 19.34375 -0.03125 Z M 23.90625 6.5 L 16.40625 7.90625 C 15.707031 9.304688 14.511719 10.695313 13.8125 11.09375 C 13.511719 11.292969 13.199219 11.511719 13 11.8125 C 16.5 11.113281 22.8125 7.90625 22.8125 7.90625 C 23.914063 7.40625 23.90625 6.5 23.90625 6.5 Z M 3.8125 6.8125 C 1.511719 6.8125 0.09375 7.886719 0.09375 9.6875 C 0.09375 12.085938 2.101563 12.992188 6 12.59375 C 6.101563 12.59375 6.613281 12.5 6.8125 12.5 C 6.914063 12.300781 7.992188 10.488281 8.09375 10.1875 C 7.695313 10.289063 7.5 9.886719 7.5 9.6875 C 7.5 7.886719 6.113281 6.8125 3.8125 6.8125 Z M 3.8125 8.09375 C 6.011719 8.195313 6 9.289063 6 9.6875 C 6 9.988281 6.011719 11.09375 3.8125 11.09375 C 1.613281 11.09375 1.59375 9.992188 1.59375 9.59375 C 1.59375 9.195313 1.613281 8.09375 3.8125 8.09375 Z M 10.09375 10.4375 C 10.1875 10.429688 10.304688 10.449219 10.40625 10.5 C 10.804688 10.601563 11.007813 11.007813 10.90625 11.40625 C 10.804688 11.804688 10.398438 12.007813 10 11.90625 C 9.601563 11.804688 9.398438 11.398438 9.5 11 C 9.574219 10.699219 9.808594 10.457031 10.09375 10.4375 Z M 9.40625 14.9375 C 9.671875 14.933594 9.886719 15.019531 10 15.09375 C 10.398438 15.195313 11.398438 15.6875 10.5 17.6875 C 9.601563 19.6875 8.613281 19.292969 8.3125 19.09375 C 8.011719 18.992188 7.011719 18.601563 7.8125 16.5 C 8.375 15.25 8.960938 14.949219 9.40625 14.9375 Z"/>
</svg>
